<?xml version="1.0" encoding="UTF-8"?>
<svg width="15px" height="12px" viewBox="0 0 15 12" version="1.1" xmlns="http://www.w3.org/2000/svg" xmlns:xlink="http://www.w3.org/1999/xlink">
    <title>Arrow - Right</title>
    <g id="Page-1" stroke="none" stroke-width="1" fill="none" fill-rule="evenodd">
        <g id="Desktop-HD-Copy" transform="translate(-291.000000, -4048.000000)" fill="#FFFFFF" fill-rule="nonzero">
            <g id="Rectangle-+-Do-you-have-a-bike?-Mask" transform="translate(209.000000, 3763.500000)">
                <path d="M89.7656033,297.496637 L89.8334194,297.5 C89.8003695,297.5 89.7678995,297.497554 89.7361856,297.492835 C89.7154056,297.48981 89.6942666,297.485593 89.6733432,297.480328 C89.6625589,297.47758 89.6523858,297.474747 89.6423179,297.471678 C89.6193722,297.464715 89.5965227,297.456345 89.5741175,297.446661 C89.5677581,297.443871 89.561845,297.441202 89.5559807,297.438449 C89.5374565,297.429806 89.5189641,297.420028 89.5008901,297.409301 C89.4883193,297.401802 89.4763992,297.394181 89.4647586,297.386192 C89.4596105,297.382658 89.4541261,297.378765 89.4486908,297.374777 L89.4317408,297.361961 C89.4154936,297.349228 89.3998832,297.335739 89.3849644,297.321549 L89.3761669,297.312851 L84.1882072,292.179517 C83.9365277,291.930488 83.9373743,291.527565 84.1900981,291.279565 C84.419847,291.05411 84.7786669,291.034304 85.0310986,291.219665 L85.1034011,291.281428 L89.187,295.321 L89.1876153,284.136364 C89.1876153,283.78491 89.4767517,283.5 89.8334194,283.5 C90.1603649,283.5 90.4305652,283.739403 90.4733281,284.050013 L90.4792236,284.136364 L90.479,295.323 L94.5632278,291.281466 C94.8148863,291.032416 95.2237859,291.031548 95.4765306,291.279528 C95.7062985,291.504964 95.7279142,291.858452 95.5408707,292.107974 L95.4784973,292.17948 L90.2913986,297.312813 L90.275168,297.327838 C90.2610342,297.340903 90.2463035,297.353348 90.2310205,297.36513 L90.2913986,297.312813 C90.2627514,297.341163 90.2320693,297.366296 90.1998141,297.388212 C90.1836915,297.398699 90.1671789,297.408876 90.1501891,297.418317 C90.1370394,297.426032 90.1235615,297.432893 90.1099039,297.439256 C90.100124,297.443466 90.090313,297.447759 90.0803769,297.451814 C90.0604547,297.460213 90.0405255,297.467182 90.020358,297.47316 C89.9616124,297.490472 89.8986452,297.5 89.8334194,297.5 C89.8076805,297.499991 89.786598,297.49882 89.7656033,297.496637 Z" id="Arrow---Right" transform="translate(89.833333, 290.500000) rotate(-90.000000) translate(-89.833333, -290.500000) "></path>
            </g>
        </g>
    </g>
</svg>