<?xml version="1.0" encoding="UTF-8"?>
<svg width="153px" height="50px" viewBox="0 0 153 50" version="1.1" xmlns="http://www.w3.org/2000/svg" xmlns:xlink="http://www.w3.org/1999/xlink">
    <title>Group 3</title>
    <g id="Page-1" stroke="none" stroke-width="1" fill="none" fill-rule="evenodd">
        <g id="Desktop-HD-Copy-2" transform="translate(-197.000000, -403.000000)">
            <g id="Group-3" transform="translate(197.000000, 403.000000)">
                <rect id="Rectangle-1-Copy-3" fill="#FFFFFF" x="0" y="0" width="152.153846" height="50" rx="15"></rect>
                <g id="Download-on" transform="translate(51.598462, 8.953846)" fill="#000000" fill-rule="nonzero">
                    <path d="M2.33692308,0.463076923 C3.15538462,0.463076923 3.86435897,0.615641026 4.46384615,0.920769231 C5.06333333,1.22589744 5.52282051,1.66205128 5.84230769,2.22923077 C6.16179487,2.79641026 6.32153846,3.46410256 6.32153846,4.23230769 C6.32153846,5.00051282 6.16179487,5.66641026 5.84230769,6.23 C5.52282051,6.79358974 5.06333333,7.22435897 4.46384615,7.52230769 C3.86435897,7.82025641 3.15538462,7.96923077 2.33692308,7.96923077 L0,7.96923077 L0,0.463076923 L2.33692308,0.463076923 Z M2.33692308,7.16153846 C3.30615385,7.16153846 4.04564103,6.90487179 4.55538462,6.39153846 C5.06512821,5.87820513 5.32,5.15846154 5.32,4.23230769 C5.32,3.29897436 5.06333333,2.57025641 4.55,2.04615385 C4.03666667,1.52205128 3.29897436,1.26 2.33692308,1.26 L0.98,1.26 L0.98,7.16153846 L2.33692308,7.16153846 Z M10.1876923,8.06615385 C9.63487179,8.06615385 9.13410256,7.94051282 8.68538462,7.68923077 C8.23666667,7.43794872 7.88487179,7.08076923 7.63,6.61769231 C7.37512821,6.15461538 7.24769231,5.61794872 7.24769231,5.00769231 C7.24769231,4.40461538 7.37871795,3.87153846 7.64076923,3.40846154 C7.90282051,2.94538462 8.26,2.59 8.71230769,2.34230769 C9.16461538,2.09461538 9.67076923,1.97076923 10.2307692,1.97076923 C10.7907692,1.97076923 11.2969231,2.09461538 11.7492308,2.34230769 C12.2015385,2.59 12.5587179,2.94358974 12.8207692,3.40307692 C13.0828205,3.8625641 13.2138462,4.3974359 13.2138462,5.00769231 C13.2138462,5.61794872 13.0792308,6.15461538 12.81,6.61769231 C12.5407692,7.08076923 12.1764103,7.43794872 11.7169231,7.68923077 C11.2574359,7.94051282 10.7476923,8.06615385 10.1876923,8.06615385 Z M10.1876923,7.20461538 C10.5394872,7.20461538 10.8697436,7.12205128 11.1784615,6.95692308 C11.4871795,6.79179487 11.7366667,6.54410256 11.9269231,6.21384615 C12.1171795,5.88358974 12.2123077,5.48153846 12.2123077,5.00769231 C12.2123077,4.53384615 12.1189744,4.13179487 11.9323077,3.80153846 C11.745641,3.47128205 11.5015385,3.22538462 11.2,3.06384615 C10.8984615,2.90230769 10.5717949,2.82153846 10.22,2.82153846 C9.86102564,2.82153846 9.5325641,2.90230769 9.23461538,3.06384615 C8.93666667,3.22538462 8.69794872,3.47128205 8.51846154,3.80153846 C8.33897436,4.13179487 8.24923077,4.53384615 8.24923077,5.00769231 C8.24923077,5.48871795 8.33717949,5.89435897 8.51307692,6.22461538 C8.68897436,6.55487179 8.92410256,6.80076923 9.21846154,6.96230769 C9.51282051,7.12384615 9.83589744,7.20461538 10.1876923,7.20461538 Z M22.3676923,2.06769231 L20.5261538,7.96923077 L19.5138462,7.96923077 L18.0923077,3.28461538 L16.6707692,7.96923077 L15.6584615,7.96923077 L13.8061538,2.06769231 L14.8076923,2.06769231 L16.1646154,7.02153846 L17.6292308,2.06769231 L18.6307692,2.06769231 L20.0630769,7.03230769 L21.3984615,2.06769231 L22.3676923,2.06769231 Z M26.2123077,1.96 C26.9302564,1.96 27.5117949,2.17717949 27.9569231,2.61153846 C28.4020513,3.04589744 28.6246154,3.67230769 28.6246154,4.49076923 L28.6246154,7.96923077 L27.6553846,7.96923077 L27.6553846,4.63076923 C27.6553846,4.04205128 27.5082051,3.59153846 27.2138462,3.27923077 C26.9194872,2.96692308 26.5174359,2.81076923 26.0076923,2.81076923 C25.4907692,2.81076923 25.0797436,2.97230769 24.7746154,3.29538462 C24.4694872,3.61846154 24.3169231,4.08871795 24.3169231,4.70615385 L24.3169231,7.96923077 L23.3369231,7.96923077 L23.3369231,2.06769231 L24.3169231,2.06769231 L24.3169231,2.90769231 C24.5107692,2.60615385 24.7746154,2.37282051 25.1084615,2.20769231 C25.4423077,2.0425641 25.8102564,1.96 26.2123077,1.96 Z M31.2092308,0 L31.2092308,7.96923077 L30.2292308,7.96923077 L30.2292308,0 L31.2092308,0 Z M35.4523077,8.06615385 C34.8994872,8.06615385 34.3987179,7.94051282 33.95,7.68923077 C33.5012821,7.43794872 33.1494872,7.08076923 32.8946154,6.61769231 C32.6397436,6.15461538 32.5123077,5.61794872 32.5123077,5.00769231 C32.5123077,4.40461538 32.6433333,3.87153846 32.9053846,3.40846154 C33.1674359,2.94538462 33.5246154,2.59 33.9769231,2.34230769 C34.4292308,2.09461538 34.9353846,1.97076923 35.4953846,1.97076923 C36.0553846,1.97076923 36.5615385,2.09461538 37.0138462,2.34230769 C37.4661538,2.59 37.8233333,2.94358974 38.0853846,3.40307692 C38.3474359,3.8625641 38.4784615,4.3974359 38.4784615,5.00769231 C38.4784615,5.61794872 38.3438462,6.15461538 38.0746154,6.61769231 C37.8053846,7.08076923 37.4410256,7.43794872 36.9815385,7.68923077 C36.5220513,7.94051282 36.0123077,8.06615385 35.4523077,8.06615385 Z M35.4523077,7.20461538 C35.8041026,7.20461538 36.134359,7.12205128 36.4430769,6.95692308 C36.7517949,6.79179487 37.0012821,6.54410256 37.1915385,6.21384615 C37.3817949,5.88358974 37.4769231,5.48153846 37.4769231,5.00769231 C37.4769231,4.53384615 37.3835897,4.13179487 37.1969231,3.80153846 C37.0102564,3.47128205 36.7661538,3.22538462 36.4646154,3.06384615 C36.1630769,2.90230769 35.8364103,2.82153846 35.4846154,2.82153846 C35.125641,2.82153846 34.7971795,2.90230769 34.4992308,3.06384615 C34.2012821,3.22538462 33.9625641,3.47128205 33.7830769,3.80153846 C33.6035897,4.13179487 33.5138462,4.53384615 33.5138462,5.00769231 C33.5138462,5.48871795 33.6017949,5.89435897 33.7776923,6.22461538 C33.9535897,6.55487179 34.1887179,6.80076923 34.4830769,6.96230769 C34.7774359,7.12384615 35.1005128,7.20461538 35.4523077,7.20461538 Z M39.4046154,4.99692308 C39.4046154,4.39384615 39.5266667,3.86435897 39.7707692,3.40846154 C40.0148718,2.9525641 40.3505128,2.59897436 40.7776923,2.34769231 C41.2048718,2.09641026 41.6805128,1.97076923 42.2046154,1.97076923 C42.7215385,1.97076923 43.1702564,2.08205128 43.5507692,2.30461538 C43.9312821,2.52717949 44.2148718,2.80717949 44.4015385,3.14461538 L44.4015385,2.06769231 L45.3923077,2.06769231 L45.3923077,7.96923077 L44.4015385,7.96923077 L44.4015385,6.87076923 C44.2076923,7.21538462 43.9187179,7.50076923 43.5346154,7.72692308 C43.1505128,7.95307692 42.7035897,8.06615385 42.1938462,8.06615385 C41.6697436,8.06615385 41.1958974,7.93692308 40.7723077,7.67846154 C40.3487179,7.42 40.0148718,7.0574359 39.7707692,6.59076923 C39.5266667,6.12410256 39.4046154,5.59282051 39.4046154,4.99692308 Z M44.4015385,5.00769231 C44.4015385,4.5625641 44.3117949,4.17487179 44.1323077,3.84461538 C43.9528205,3.51435897 43.7105128,3.26128205 43.4053846,3.08538462 C43.1002564,2.90948718 42.7646154,2.82153846 42.3984615,2.82153846 C42.0323077,2.82153846 41.6984615,2.90769231 41.3969231,3.08 C41.0953846,3.25230769 40.8548718,3.50358974 40.6753846,3.83384615 C40.4958974,4.16410256 40.4061538,4.55179487 40.4061538,4.99692308 C40.4061538,5.44923077 40.4958974,5.84230769 40.6753846,6.17615385 C40.8548718,6.51 41.0953846,6.76487179 41.3969231,6.94076923 C41.6984615,7.11666667 42.0323077,7.20461538 42.3984615,7.20461538 C42.7646154,7.20461538 43.1002564,7.11666667 43.4053846,6.94076923 C43.7105128,6.76487179 43.9528205,6.51 44.1323077,6.17615385 C44.3117949,5.84230769 44.4015385,5.45282051 44.4015385,5.00769231 Z M46.6846154,4.99692308 C46.6846154,4.39384615 46.8066667,3.86435897 47.0507692,3.40846154 C47.2948718,2.9525641 47.6305128,2.59897436 48.0576923,2.34769231 C48.4848718,2.09641026 48.9641026,1.97076923 49.4953846,1.97076923 C49.9548718,1.97076923 50.3820513,2.07666667 50.7769231,2.28846154 C51.1717949,2.50025641 51.4733333,2.77846154 51.6815385,3.12307692 L51.6815385,0 L52.6723077,0 L52.6723077,7.96923077 L51.6815385,7.96923077 L51.6815385,6.86 C51.4876923,7.21179487 51.2005128,7.50076923 50.82,7.72692308 C50.4394872,7.95307692 49.994359,8.06615385 49.4846154,8.06615385 C48.9605128,8.06615385 48.4848718,7.93692308 48.0576923,7.67846154 C47.6305128,7.42 47.2948718,7.0574359 47.0507692,6.59076923 C46.8066667,6.12410256 46.6846154,5.59282051 46.6846154,4.99692308 Z M51.6815385,5.00769231 C51.6815385,4.5625641 51.5917949,4.17487179 51.4123077,3.84461538 C51.2328205,3.51435897 50.9905128,3.26128205 50.6853846,3.08538462 C50.3802564,2.90948718 50.0446154,2.82153846 49.6784615,2.82153846 C49.3123077,2.82153846 48.9784615,2.90769231 48.6769231,3.08 C48.3753846,3.25230769 48.1348718,3.50358974 47.9553846,3.83384615 C47.7758974,4.16410256 47.6861538,4.55179487 47.6861538,4.99692308 C47.6861538,5.44923077 47.7758974,5.84230769 47.9553846,6.17615385 C48.1348718,6.51 48.3753846,6.76487179 48.6769231,6.94076923 C48.9784615,7.11666667 49.3123077,7.20461538 49.6784615,7.20461538 C50.0446154,7.20461538 50.3802564,7.11666667 50.6853846,6.94076923 C50.9905128,6.76487179 51.2328205,6.51 51.4123077,6.17615385 C51.5917949,5.84230769 51.6815385,5.45282051 51.6815385,5.00769231 Z M59.78,8.06615385 C59.2271795,8.06615385 58.7264103,7.94051282 58.2776923,7.68923077 C57.8289744,7.43794872 57.4771795,7.08076923 57.2223077,6.61769231 C56.9674359,6.15461538 56.84,5.61794872 56.84,5.00769231 C56.84,4.40461538 56.9710256,3.87153846 57.2330769,3.40846154 C57.4951282,2.94538462 57.8523077,2.59 58.3046154,2.34230769 C58.7569231,2.09461538 59.2630769,1.97076923 59.8230769,1.97076923 C60.3830769,1.97076923 60.8892308,2.09461538 61.3415385,2.34230769 C61.7938462,2.59 62.1510256,2.94358974 62.4130769,3.40307692 C62.6751282,3.8625641 62.8061538,4.3974359 62.8061538,5.00769231 C62.8061538,5.61794872 62.6715385,6.15461538 62.4023077,6.61769231 C62.1330769,7.08076923 61.7687179,7.43794872 61.3092308,7.68923077 C60.8497436,7.94051282 60.34,8.06615385 59.78,8.06615385 Z M59.78,7.20461538 C60.1317949,7.20461538 60.4620513,7.12205128 60.7707692,6.95692308 C61.0794872,6.79179487 61.3289744,6.54410256 61.5192308,6.21384615 C61.7094872,5.88358974 61.8046154,5.48153846 61.8046154,5.00769231 C61.8046154,4.53384615 61.7112821,4.13179487 61.5246154,3.80153846 C61.3379487,3.47128205 61.0938462,3.22538462 60.7923077,3.06384615 C60.4907692,2.90230769 60.1641026,2.82153846 59.8123077,2.82153846 C59.4533333,2.82153846 59.1248718,2.90230769 58.8269231,3.06384615 C58.5289744,3.22538462 58.2902564,3.47128205 58.1107692,3.80153846 C57.9312821,4.13179487 57.8415385,4.53384615 57.8415385,5.00769231 C57.8415385,5.48871795 57.9294872,5.89435897 58.1053846,6.22461538 C58.2812821,6.55487179 58.5164103,6.80076923 58.8107692,6.96230769 C59.1051282,7.12384615 59.4282051,7.20461538 59.78,7.20461538 Z M66.9738462,1.96 C67.6917949,1.96 68.2733333,2.17717949 68.7184615,2.61153846 C69.1635897,3.04589744 69.3861538,3.67230769 69.3861538,4.49076923 L69.3861538,7.96923077 L68.4169231,7.96923077 L68.4169231,4.63076923 C68.4169231,4.04205128 68.2697436,3.59153846 67.9753846,3.27923077 C67.6810256,2.96692308 67.2789744,2.81076923 66.7692308,2.81076923 C66.2523077,2.81076923 65.8412821,2.97230769 65.5361538,3.29538462 C65.2310256,3.61846154 65.0784615,4.08871795 65.0784615,4.70615385 L65.0784615,7.96923077 L64.0984615,7.96923077 L64.0984615,2.06769231 L65.0784615,2.06769231 L65.0784615,2.90769231 C65.2723077,2.60615385 65.5361538,2.37282051 65.87,2.20769231 C66.2038462,2.0425641 66.5717949,1.96 66.9738462,1.96 Z" id="Combined-Shape"></path>
                </g>
                <path d="M38.8221357,23.706044 C41.1445244,23.706044 42.6295961,25.9530769 42.6295961,25.9530769 C42.6295961,25.9530769 40.3641743,27.1824176 40.3641743,29.8522527 C40.3641743,33.021044 43.2100705,33.9428022 43.2100705,33.9428022 C43.2100705,33.9428022 40.9638014,39.2725824 38.4415369,39.2725824 C37.0232543,39.2725824 36.9284729,38.4566484 35.0436499,38.4566484 C33.4068299,38.4566484 32.854839,39.2725824 31.6079485,39.2725824 C29.2281016,39.2725824 26.1538462,34.0773077 26.1538462,29.8522527 C26.1538462,25.4635165 29.266407,23.706044 31.2175279,23.706044 C32.9309587,23.706044 33.6445199,24.7143407 35.0244972,24.7143407 C36.1859371,24.7143407 37.0998651,23.706044 38.8221357,23.706044 L38.8221357,23.706044 Z M38.4228753,19.2307692 C38.7651686,21.3818681 36.8140477,24.0423077 34.4823282,23.9557692 C34.1395438,21.2186813 36.6524775,19.3751648 38.4228753,19.2307692 L38.4228753,19.2307692 Z" id="Imported-Layers-Copy" fill="#1575E1"></path>
                <path d="M52.1489154,35.5310463 L52.9537315,33.3034305 L57.3227329,33.3034305 L58.127549,35.5310463 L59.5072336,35.5310463 L55.8999331,25.5714477 L54.390903,25.5714477 L50.7692308,35.5310463 L52.1489154,35.5310463 Z M56.9490683,32.2399236 L53.3273961,32.2399236 L55.1382322,27.1810798 L56.9490683,32.2399236 Z M62.3959484,39.2676923 L62.3959484,34.0795031 C62.6642204,34.5298168 63.054652,34.9058767 63.5672432,35.2076828 C64.0798344,35.5094888 64.67147,35.6603918 65.34215,35.6603918 C66.0415735,35.6603918 66.6763243,35.4879312 67.2464023,35.14301 C67.8164803,34.7980889 68.2643988,34.3142411 68.5901577,33.6914668 C68.9159165,33.0686925 69.078796,32.3596878 69.078796,31.5644529 C69.078796,30.7596369 68.9159165,30.0530276 68.5901577,29.4446249 C68.2643988,28.8362223 67.8164803,28.364351 67.2464023,28.029011 C66.6763243,27.693671 66.0415735,27.526001 65.34215,27.526001 C64.6618888,27.526001 64.0654627,27.676904 63.5528715,27.97871 C63.0402803,28.280516 62.6546393,28.6565759 62.3959484,29.1068896 L62.3959484,29.1068896 L62.3959484,27.6553464 L61.0881223,27.6553464 L61.0881223,39.2676923 L62.3959484,39.2676923 Z M65.0690874,34.5106546 C64.5900303,34.5106546 64.1469024,34.3932856 63.7397038,34.1585475 C63.3325052,33.9238095 63.0067463,33.5836789 62.7624271,33.1381558 C62.518108,32.6926326 62.3959484,32.1728556 62.3959484,31.5788247 C62.3959484,30.9943749 62.518108,30.4793884 62.7624271,30.0338653 C63.0067463,29.5883421 63.3325052,29.2482115 63.7397038,29.0134735 C64.1469024,28.7787355 64.5900303,28.6613665 65.0690874,28.6613665 C65.5577258,28.6613665 66.0056442,28.7763402 66.4128428,29.0062876 C66.8200414,29.2362351 67.143405,29.5715751 67.3829336,30.0123077 C67.6224622,30.4530403 67.7422265,30.970422 67.7422265,31.5644529 C67.7422265,32.168065 67.6224622,32.6926326 67.3829336,33.1381558 C67.143405,33.5836789 66.8200414,33.9238095 66.4128428,34.1585475 C66.0056442,34.3932856 65.5577258,34.5106546 65.0690874,34.5106546 Z M72.1112279,39.2676923 L72.1112279,34.0795031 C72.3794999,34.5298168 72.7699315,34.9058767 73.2825227,35.2076828 C73.7951139,35.5094888 74.3867495,35.6603918 75.0574295,35.6603918 C75.756853,35.6603918 76.3916038,35.4879312 76.9616818,35.14301 C77.5317598,34.7980889 77.9796783,34.3142411 78.3054372,33.6914668 C78.6311961,33.0686925 78.7940755,32.3596878 78.7940755,31.5644529 C78.7940755,30.7596369 78.6311961,30.0530276 78.3054372,29.4446249 C77.9796783,28.8362223 77.5317598,28.364351 76.9616818,28.029011 C76.3916038,27.693671 75.756853,27.526001 75.0574295,27.526001 C74.3771683,27.526001 73.7807422,27.676904 73.268151,27.97871 C72.7555598,28.280516 72.3699188,28.6565759 72.1112279,29.1068896 L72.1112279,29.1068896 L72.1112279,27.6553464 L70.8034018,27.6553464 L70.8034018,39.2676923 L72.1112279,39.2676923 Z M74.7843669,34.5106546 C74.3053098,34.5106546 73.8621819,34.3932856 73.4549833,34.1585475 C73.0477847,33.9238095 72.7220258,33.5836789 72.4777066,33.1381558 C72.2333875,32.6926326 72.1112279,32.1728556 72.1112279,31.5788247 C72.1112279,30.9943749 72.2333875,30.4793884 72.4777066,30.0338653 C72.7220258,29.5883421 73.0477847,29.2482115 73.4549833,29.0134735 C73.8621819,28.7787355 74.3053098,28.6613665 74.7843669,28.6613665 C75.2730053,28.6613665 75.7209237,28.7763402 76.1281223,29.0062876 C76.5353209,29.2362351 76.8586845,29.5715751 77.0982131,30.0123077 C77.3377417,30.4530403 77.457506,30.970422 77.457506,31.5644529 C77.457506,32.168065 77.3377417,32.6926326 77.0982131,33.1381558 C76.8586845,33.5836789 76.5353209,33.9238095 76.1281223,34.1585475 C75.7209237,34.3932856 75.2730053,34.5106546 74.7843669,34.5106546 Z M87.5320784,35.6316484 C88.2219207,35.6316484 88.8207422,35.4975123 89.3285428,35.2292403 C89.8363434,34.9609683 90.2195891,34.6112566 90.47828,34.1801051 C90.7369709,33.7489537 90.8663163,33.2890588 90.8663163,32.8004204 C90.8663163,32.168065 90.7225991,31.6674502 90.4351648,31.2985762 C90.1477305,30.9297022 89.8028094,30.6566396 89.4004013,30.4793884 C88.9979933,30.3021373 88.4662398,30.1224908 87.8051409,29.9404491 C87.2590158,29.7871508 86.8350502,29.6506195 86.5332441,29.5308552 C86.2314381,29.4110909 85.9775378,29.2362351 85.7715432,29.0062876 C85.5655487,28.7763402 85.4625514,28.4793247 85.4625514,28.1152413 C85.4625514,27.6074407 85.6350119,27.2122185 85.9799331,26.9295748 C86.3248543,26.646931 86.7703774,26.5056092 87.3165026,26.5056092 C87.9009524,26.5056092 88.3704284,26.6517216 88.7249307,26.9439465 C89.079433,27.2361714 89.280637,27.5739067 89.3285428,27.9571524 L89.3285428,27.9571524 L90.7657143,27.9571524 C90.6890651,27.1810798 90.3513298,26.5583055 89.7525084,26.0888294 C89.1536869,25.6193534 88.3848001,25.3846154 87.4458481,25.3846154 C86.7943303,25.3846154 86.2170664,25.4995891 85.7140564,25.7295366 C85.2110463,25.959484 84.8206147,26.2852429 84.5427616,26.7068132 C84.2649084,27.1283835 84.1259818,27.6122312 84.1259818,28.1583564 C84.1259818,28.7811308 84.2673037,29.2769549 84.5499474,29.645829 C84.8325912,30.014703 85.1727218,30.2853703 85.5703392,30.4578309 C85.9679567,30.6302914 86.4973149,30.802752 87.1584138,30.9752126 C87.6949578,31.1189298 88.1213187,31.2530658 88.4374964,31.3776206 C88.7536742,31.5021755 89.0171556,31.6842172 89.2279408,31.9237458 C89.4387259,32.1632744 89.5441185,32.4746616 89.5441185,32.8579073 C89.5441185,33.3465456 89.364472,33.7465584 89.0051792,34.0579455 C88.6458863,34.3693327 88.1548527,34.5250263 87.5320784,34.5250263 C86.8805606,34.5250263 86.3847364,34.3645421 86.0446058,34.0435738 C85.7044752,33.7226055 85.5104571,33.3273833 85.4625514,32.8579073 L85.4625514,32.8579073 L84.068495,32.8579073 C84.0780761,33.4040325 84.2313744,33.8854849 84.5283899,34.3022647 C84.8254053,34.7190444 85.2349992,35.0448033 85.7571715,35.2795413 C86.2793438,35.5142793 86.8709795,35.6316484 87.5320784,35.6316484 Z M96.4425418,35.5310463 L96.4425418,34.4244243 L95.4796369,34.4244243 C95.0772289,34.4244243 94.7945851,34.3453798 94.6317057,34.187291 C94.4688262,34.0292021 94.3873865,33.7585348 94.3873865,33.3752891 L94.3873865,33.3752891 L94.3873865,28.733225 L96.4425418,28.733225 L96.4425418,27.6553464 L94.3873865,27.6553464 L94.3873865,25.6720497 L93.0795604,25.6720497 L93.0795604,27.6553464 L92.0591687,27.6553464 L92.0591687,28.733225 L93.0795604,28.733225 L93.0795604,33.3752891 C93.0795604,34.1417805 93.2616022,34.6926963 93.6256856,35.0280363 C93.9897691,35.3633763 94.5358943,35.5310463 95.2640612,35.5310463 L95.2640612,35.5310463 L96.4425418,35.5310463 Z M101.45827,35.6603918 C102.2056,35.6603918 102.885861,35.4927218 103.499054,35.1573817 C104.112247,34.8220417 104.59849,34.3453798 104.957783,33.7273961 C105.317076,33.1094123 105.496722,32.3932219 105.496722,31.5788247 C105.496722,30.7644275 105.321867,30.0506323 104.972155,29.4374391 C104.622443,28.8242459 104.145781,28.3523746 103.542169,28.0218251 C102.938557,27.6912757 102.263086,27.526001 101.515757,27.526001 C100.768428,27.526001 100.092957,27.6912757 99.4893454,28.0218251 C98.8857334,28.3523746 98.4090715,28.8266412 98.0593598,29.4446249 C97.709648,30.0626087 97.5347922,30.7740086 97.5347922,31.5788247 C97.5347922,32.3932219 97.7048575,33.1094123 98.0449881,33.7273961 C98.3851186,34.3453798 98.8545947,34.8220417 99.4534161,35.1573817 C100.052238,35.4927218 100.720522,35.6603918 101.45827,35.6603918 Z M101.45827,34.5106546 C100.988794,34.5106546 100.557643,34.4028667 100.164816,34.187291 C99.7719892,33.9717152 99.4582067,33.6435611 99.2234687,33.2028285 C98.9887307,32.7620959 98.8713617,32.2207613 98.8713617,31.5788247 C98.8713617,30.9464692 98.991126,30.4099251 99.2306546,29.9691925 C99.4701832,29.5284599 99.7887562,29.2003058 100.186374,28.9847301 C100.583991,28.7691543 101.022328,28.6613665 101.501386,28.6613665 C101.970862,28.6613665 102.406804,28.7691543 102.809212,28.9847301 C103.21162,29.2003058 103.537379,29.5284599 103.786488,29.9691925 C104.035598,30.4099251 104.160153,30.9464692 104.160153,31.5788247 C104.160153,32.2111801 104.033203,32.7477242 103.779302,33.1884568 C103.525402,33.6291894 103.192457,33.9597388 102.780468,34.1801051 C102.368479,34.4004714 101.927746,34.5106546 101.45827,34.5106546 Z M108.529154,35.5310463 L108.529154,31.2482752 C108.529154,29.6578054 109.262112,28.8625705 110.728027,28.8625705 L110.728027,28.8625705 L111.072948,28.8625705 L111.072948,27.5116292 C110.459755,27.5116292 109.939978,27.6361841 109.513617,27.8852938 C109.087256,28.1344036 108.759102,28.4841153 108.529154,28.934429 L108.529154,28.934429 L108.529154,27.6553464 L107.221328,27.6553464 L107.221328,35.5310463 L108.529154,35.5310463 Z M115.988075,35.6603918 C116.927027,35.6603918 117.71268,35.4232585 118.345036,34.9489919 C118.977391,34.4747253 119.398962,33.8591368 119.609747,33.1022265 L119.609747,33.1022265 L118.201319,33.1022265 C118.04802,33.5429591 117.782144,33.8950661 117.403688,34.1585475 C117.025233,34.422029 116.553362,34.5537697 115.988075,34.5537697 C115.298232,34.5537697 114.711387,34.3357987 114.227539,33.8998567 C113.743692,33.4639146 113.477815,32.8579073 113.429909,32.0818347 L113.429909,32.0818347 L119.72472,32.0818347 C119.753464,31.8039815 119.767836,31.5405001 119.767836,31.2913903 C119.767836,30.5728046 119.612142,29.9284727 119.300755,29.3583946 C118.989368,28.7883166 118.54624,28.3403982 117.971371,28.0146393 C117.396503,27.6888804 116.735404,27.526001 115.988075,27.526001 C115.221583,27.526001 114.543717,27.6912757 113.954477,28.0218251 C113.365237,28.3523746 112.907737,28.8242459 112.581978,29.4374391 C112.256219,30.0506323 112.09334,30.7644275 112.09334,31.5788247 C112.09334,32.3932219 112.26101,33.1094123 112.59635,33.7273961 C112.93169,34.3453798 113.39398,34.8220417 113.98322,35.1573817 C114.572461,35.4927218 115.240745,35.6603918 115.988075,35.6603918 Z M118.416894,31.0183278 L113.444281,31.0183278 C113.511349,30.2709986 113.777226,29.6865488 114.241911,29.2649785 C114.706597,28.8434082 115.269489,28.632623 115.930588,28.632623 C116.390483,28.632623 116.809658,28.7260392 117.188113,28.9128715 C117.566568,29.0997038 117.865979,29.3727664 118.086345,29.7320592 C118.306711,30.0913521 118.416894,30.5201083 118.416894,31.0183278 L118.416894,31.0183278 Z" id="AppStore-Copy" fill="#000000" fill-rule="nonzero"></path>
            </g>
        </g>
    </g>
</svg>