<?xml version="1.0" encoding="UTF-8"?>
<svg width="153px" height="50px" viewBox="0 0 153 50" version="1.1" xmlns="http://www.w3.org/2000/svg" xmlns:xlink="http://www.w3.org/1999/xlink">
    <title>Group 6</title>
    <g id="Page-1" stroke="none" stroke-width="1" fill="none" fill-rule="evenodd">
        <g id="Desktop-HD-Copy-2" transform="translate(-397.000000, -1911.000000)">
            <g id="Group" transform="translate(227.000000, 1911.000000)">
                <g id="Group-6" transform="translate(170.000000, 0.000000)">
                    <rect id="Rectangle-1-Copy-2" stroke="#1575E1" stroke-width="1.5" fill="#FFFFFF" x="0.75" y="0.75" width="150.653846" height="48.5" rx="15"></rect>
                    <g id="Download-on" transform="translate(53.136923, 8.953846)" fill="#000000" fill-rule="nonzero">
                        <path d="M2.33692308,0.463076923 C3.15538462,0.463076923 3.86435897,0.615641026 4.46384615,0.920769231 C5.06333333,1.22589744 5.52282051,1.66205128 5.84230769,2.22923077 C6.16179487,2.79641026 6.32153846,3.46410256 6.32153846,4.23230769 C6.32153846,5.00051282 6.16179487,5.66641026 5.84230769,6.23 C5.52282051,6.79358974 5.06333333,7.22435897 4.46384615,7.52230769 C3.86435897,7.82025641 3.15538462,7.96923077 2.33692308,7.96923077 L0,7.96923077 L0,0.463076923 L2.33692308,0.463076923 Z M2.33692308,7.16153846 C3.30615385,7.16153846 4.04564103,6.90487179 4.55538462,6.39153846 C5.06512821,5.87820513 5.32,5.15846154 5.32,4.23230769 C5.32,3.29897436 5.06333333,2.57025641 4.55,2.04615385 C4.03666667,1.52205128 3.29897436,1.26 2.33692308,1.26 L0.98,1.26 L0.98,7.16153846 L2.33692308,7.16153846 Z M10.1876923,8.06615385 C9.63487179,8.06615385 9.13410256,7.94051282 8.68538462,7.68923077 C8.23666667,7.43794872 7.88487179,7.08076923 7.63,6.61769231 C7.37512821,6.15461538 7.24769231,5.61794872 7.24769231,5.00769231 C7.24769231,4.40461538 7.37871795,3.87153846 7.64076923,3.40846154 C7.90282051,2.94538462 8.26,2.59 8.71230769,2.34230769 C9.16461538,2.09461538 9.67076923,1.97076923 10.2307692,1.97076923 C10.7907692,1.97076923 11.2969231,2.09461538 11.7492308,2.34230769 C12.2015385,2.59 12.5587179,2.94358974 12.8207692,3.40307692 C13.0828205,3.8625641 13.2138462,4.3974359 13.2138462,5.00769231 C13.2138462,5.61794872 13.0792308,6.15461538 12.81,6.61769231 C12.5407692,7.08076923 12.1764103,7.43794872 11.7169231,7.68923077 C11.2574359,7.94051282 10.7476923,8.06615385 10.1876923,8.06615385 Z M10.1876923,7.20461538 C10.5394872,7.20461538 10.8697436,7.12205128 11.1784615,6.95692308 C11.4871795,6.79179487 11.7366667,6.54410256 11.9269231,6.21384615 C12.1171795,5.88358974 12.2123077,5.48153846 12.2123077,5.00769231 C12.2123077,4.53384615 12.1189744,4.13179487 11.9323077,3.80153846 C11.745641,3.47128205 11.5015385,3.22538462 11.2,3.06384615 C10.8984615,2.90230769 10.5717949,2.82153846 10.22,2.82153846 C9.86102564,2.82153846 9.5325641,2.90230769 9.23461538,3.06384615 C8.93666667,3.22538462 8.69794872,3.47128205 8.51846154,3.80153846 C8.33897436,4.13179487 8.24923077,4.53384615 8.24923077,5.00769231 C8.24923077,5.48871795 8.33717949,5.89435897 8.51307692,6.22461538 C8.68897436,6.55487179 8.92410256,6.80076923 9.21846154,6.96230769 C9.51282051,7.12384615 9.83589744,7.20461538 10.1876923,7.20461538 Z M22.3676923,2.06769231 L20.5261538,7.96923077 L19.5138462,7.96923077 L18.0923077,3.28461538 L16.6707692,7.96923077 L15.6584615,7.96923077 L13.8061538,2.06769231 L14.8076923,2.06769231 L16.1646154,7.02153846 L17.6292308,2.06769231 L18.6307692,2.06769231 L20.0630769,7.03230769 L21.3984615,2.06769231 L22.3676923,2.06769231 Z M26.2123077,1.96 C26.9302564,1.96 27.5117949,2.17717949 27.9569231,2.61153846 C28.4020513,3.04589744 28.6246154,3.67230769 28.6246154,4.49076923 L28.6246154,7.96923077 L27.6553846,7.96923077 L27.6553846,4.63076923 C27.6553846,4.04205128 27.5082051,3.59153846 27.2138462,3.27923077 C26.9194872,2.96692308 26.5174359,2.81076923 26.0076923,2.81076923 C25.4907692,2.81076923 25.0797436,2.97230769 24.7746154,3.29538462 C24.4694872,3.61846154 24.3169231,4.08871795 24.3169231,4.70615385 L24.3169231,7.96923077 L23.3369231,7.96923077 L23.3369231,2.06769231 L24.3169231,2.06769231 L24.3169231,2.90769231 C24.5107692,2.60615385 24.7746154,2.37282051 25.1084615,2.20769231 C25.4423077,2.0425641 25.8102564,1.96 26.2123077,1.96 Z M31.2092308,0 L31.2092308,7.96923077 L30.2292308,7.96923077 L30.2292308,0 L31.2092308,0 Z M35.4523077,8.06615385 C34.8994872,8.06615385 34.3987179,7.94051282 33.95,7.68923077 C33.5012821,7.43794872 33.1494872,7.08076923 32.8946154,6.61769231 C32.6397436,6.15461538 32.5123077,5.61794872 32.5123077,5.00769231 C32.5123077,4.40461538 32.6433333,3.87153846 32.9053846,3.40846154 C33.1674359,2.94538462 33.5246154,2.59 33.9769231,2.34230769 C34.4292308,2.09461538 34.9353846,1.97076923 35.4953846,1.97076923 C36.0553846,1.97076923 36.5615385,2.09461538 37.0138462,2.34230769 C37.4661538,2.59 37.8233333,2.94358974 38.0853846,3.40307692 C38.3474359,3.8625641 38.4784615,4.3974359 38.4784615,5.00769231 C38.4784615,5.61794872 38.3438462,6.15461538 38.0746154,6.61769231 C37.8053846,7.08076923 37.4410256,7.43794872 36.9815385,7.68923077 C36.5220513,7.94051282 36.0123077,8.06615385 35.4523077,8.06615385 Z M35.4523077,7.20461538 C35.8041026,7.20461538 36.134359,7.12205128 36.4430769,6.95692308 C36.7517949,6.79179487 37.0012821,6.54410256 37.1915385,6.21384615 C37.3817949,5.88358974 37.4769231,5.48153846 37.4769231,5.00769231 C37.4769231,4.53384615 37.3835897,4.13179487 37.1969231,3.80153846 C37.0102564,3.47128205 36.7661538,3.22538462 36.4646154,3.06384615 C36.1630769,2.90230769 35.8364103,2.82153846 35.4846154,2.82153846 C35.125641,2.82153846 34.7971795,2.90230769 34.4992308,3.06384615 C34.2012821,3.22538462 33.9625641,3.47128205 33.7830769,3.80153846 C33.6035897,4.13179487 33.5138462,4.53384615 33.5138462,5.00769231 C33.5138462,5.48871795 33.6017949,5.89435897 33.7776923,6.22461538 C33.9535897,6.55487179 34.1887179,6.80076923 34.4830769,6.96230769 C34.7774359,7.12384615 35.1005128,7.20461538 35.4523077,7.20461538 Z M39.4046154,4.99692308 C39.4046154,4.39384615 39.5266667,3.86435897 39.7707692,3.40846154 C40.0148718,2.9525641 40.3505128,2.59897436 40.7776923,2.34769231 C41.2048718,2.09641026 41.6805128,1.97076923 42.2046154,1.97076923 C42.7215385,1.97076923 43.1702564,2.08205128 43.5507692,2.30461538 C43.9312821,2.52717949 44.2148718,2.80717949 44.4015385,3.14461538 L44.4015385,2.06769231 L45.3923077,2.06769231 L45.3923077,7.96923077 L44.4015385,7.96923077 L44.4015385,6.87076923 C44.2076923,7.21538462 43.9187179,7.50076923 43.5346154,7.72692308 C43.1505128,7.95307692 42.7035897,8.06615385 42.1938462,8.06615385 C41.6697436,8.06615385 41.1958974,7.93692308 40.7723077,7.67846154 C40.3487179,7.42 40.0148718,7.0574359 39.7707692,6.59076923 C39.5266667,6.12410256 39.4046154,5.59282051 39.4046154,4.99692308 Z M44.4015385,5.00769231 C44.4015385,4.5625641 44.3117949,4.17487179 44.1323077,3.84461538 C43.9528205,3.51435897 43.7105128,3.26128205 43.4053846,3.08538462 C43.1002564,2.90948718 42.7646154,2.82153846 42.3984615,2.82153846 C42.0323077,2.82153846 41.6984615,2.90769231 41.3969231,3.08 C41.0953846,3.25230769 40.8548718,3.50358974 40.6753846,3.83384615 C40.4958974,4.16410256 40.4061538,4.55179487 40.4061538,4.99692308 C40.4061538,5.44923077 40.4958974,5.84230769 40.6753846,6.17615385 C40.8548718,6.51 41.0953846,6.76487179 41.3969231,6.94076923 C41.6984615,7.11666667 42.0323077,7.20461538 42.3984615,7.20461538 C42.7646154,7.20461538 43.1002564,7.11666667 43.4053846,6.94076923 C43.7105128,6.76487179 43.9528205,6.51 44.1323077,6.17615385 C44.3117949,5.84230769 44.4015385,5.45282051 44.4015385,5.00769231 Z M46.6846154,4.99692308 C46.6846154,4.39384615 46.8066667,3.86435897 47.0507692,3.40846154 C47.2948718,2.9525641 47.6305128,2.59897436 48.0576923,2.34769231 C48.4848718,2.09641026 48.9641026,1.97076923 49.4953846,1.97076923 C49.9548718,1.97076923 50.3820513,2.07666667 50.7769231,2.28846154 C51.1717949,2.50025641 51.4733333,2.77846154 51.6815385,3.12307692 L51.6815385,0 L52.6723077,0 L52.6723077,7.96923077 L51.6815385,7.96923077 L51.6815385,6.86 C51.4876923,7.21179487 51.2005128,7.50076923 50.82,7.72692308 C50.4394872,7.95307692 49.994359,8.06615385 49.4846154,8.06615385 C48.9605128,8.06615385 48.4848718,7.93692308 48.0576923,7.67846154 C47.6305128,7.42 47.2948718,7.0574359 47.0507692,6.59076923 C46.8066667,6.12410256 46.6846154,5.59282051 46.6846154,4.99692308 Z M51.6815385,5.00769231 C51.6815385,4.5625641 51.5917949,4.17487179 51.4123077,3.84461538 C51.2328205,3.51435897 50.9905128,3.26128205 50.6853846,3.08538462 C50.3802564,2.90948718 50.0446154,2.82153846 49.6784615,2.82153846 C49.3123077,2.82153846 48.9784615,2.90769231 48.6769231,3.08 C48.3753846,3.25230769 48.1348718,3.50358974 47.9553846,3.83384615 C47.7758974,4.16410256 47.6861538,4.55179487 47.6861538,4.99692308 C47.6861538,5.44923077 47.7758974,5.84230769 47.9553846,6.17615385 C48.1348718,6.51 48.3753846,6.76487179 48.6769231,6.94076923 C48.9784615,7.11666667 49.3123077,7.20461538 49.6784615,7.20461538 C50.0446154,7.20461538 50.3802564,7.11666667 50.6853846,6.94076923 C50.9905128,6.76487179 51.2328205,6.51 51.4123077,6.17615385 C51.5917949,5.84230769 51.6815385,5.45282051 51.6815385,5.00769231 Z M59.78,8.06615385 C59.2271795,8.06615385 58.7264103,7.94051282 58.2776923,7.68923077 C57.8289744,7.43794872 57.4771795,7.08076923 57.2223077,6.61769231 C56.9674359,6.15461538 56.84,5.61794872 56.84,5.00769231 C56.84,4.40461538 56.9710256,3.87153846 57.2330769,3.40846154 C57.4951282,2.94538462 57.8523077,2.59 58.3046154,2.34230769 C58.7569231,2.09461538 59.2630769,1.97076923 59.8230769,1.97076923 C60.3830769,1.97076923 60.8892308,2.09461538 61.3415385,2.34230769 C61.7938462,2.59 62.1510256,2.94358974 62.4130769,3.40307692 C62.6751282,3.8625641 62.8061538,4.3974359 62.8061538,5.00769231 C62.8061538,5.61794872 62.6715385,6.15461538 62.4023077,6.61769231 C62.1330769,7.08076923 61.7687179,7.43794872 61.3092308,7.68923077 C60.8497436,7.94051282 60.34,8.06615385 59.78,8.06615385 Z M59.78,7.20461538 C60.1317949,7.20461538 60.4620513,7.12205128 60.7707692,6.95692308 C61.0794872,6.79179487 61.3289744,6.54410256 61.5192308,6.21384615 C61.7094872,5.88358974 61.8046154,5.48153846 61.8046154,5.00769231 C61.8046154,4.53384615 61.7112821,4.13179487 61.5246154,3.80153846 C61.3379487,3.47128205 61.0938462,3.22538462 60.7923077,3.06384615 C60.4907692,2.90230769 60.1641026,2.82153846 59.8123077,2.82153846 C59.4533333,2.82153846 59.1248718,2.90230769 58.8269231,3.06384615 C58.5289744,3.22538462 58.2902564,3.47128205 58.1107692,3.80153846 C57.9312821,4.13179487 57.8415385,4.53384615 57.8415385,5.00769231 C57.8415385,5.48871795 57.9294872,5.89435897 58.1053846,6.22461538 C58.2812821,6.55487179 58.5164103,6.80076923 58.8107692,6.96230769 C59.1051282,7.12384615 59.4282051,7.20461538 59.78,7.20461538 Z M66.9738462,1.96 C67.6917949,1.96 68.2733333,2.17717949 68.7184615,2.61153846 C69.1635897,3.04589744 69.3861538,3.67230769 69.3861538,4.49076923 L69.3861538,7.96923077 L68.4169231,7.96923077 L68.4169231,4.63076923 C68.4169231,4.04205128 68.2697436,3.59153846 67.9753846,3.27923077 C67.6810256,2.96692308 67.2789744,2.81076923 66.7692308,2.81076923 C66.2523077,2.81076923 65.8412821,2.97230769 65.5361538,3.29538462 C65.2310256,3.61846154 65.0784615,4.08871795 65.0784615,4.70615385 L65.0784615,7.96923077 L64.0984615,7.96923077 L64.0984615,2.06769231 L65.0784615,2.06769231 L65.0784615,2.90769231 C65.2723077,2.60615385 65.5361538,2.37282051 65.87,2.20769231 C66.2038462,2.0425641 66.5717949,1.96 66.9738462,1.96 Z" id="Combined-Shape"></path>
                    </g>
                    <path d="M27.4879176,40.0121382 C27.145776,39.9199792 26.9230769,39.5802934 26.9230769,39.0546451 L26.9230769,21.7037679 C26.9230769,21.2169375 27.1116395,20.8886058 27.4105477,20.7692308 L27.4105477,20.7692308 L35.9371259,30.4386281 L27.4879176,40.0121382 L27.4879176,40.0121382 Z M28.6616624,39.6438346 L38.9249717,33.8269355 L36.4251968,30.9921152 L28.6616624,39.6438346 L28.6616624,39.6438346 Z M38.9956457,26.9731236 L28.8753667,21.235956 L36.4399951,29.8688442 L38.9956457,26.9731236 L38.9956457,26.9731236 Z M39.6822984,27.3623858 L43.6468665,29.6098921 C44.39751,30.0354305 44.4043746,30.7213938 43.6468665,31.150724 L39.5819987,33.4545546 L36.930671,30.4288123 L39.6822984,27.3623858 L39.6822984,27.3623858 Z" id="google-play-copy" fill="#1575E1"></path>
                    <path d="M86.72899,27.7930662 L85.7408363,28.3572412 L84.7828482,28.3572412 C85.1370661,28.6518145 85.8761247,29.2770313 85.8761247,30.4627236 C85.8761247,31.6183573 85.2321337,32.1631098 84.582658,32.6787287 C84.3833818,32.8817392 84.1502836,33.10186 84.1502836,33.4422147 C84.1502836,33.7876562 84.3833818,33.9749438 84.5511211,34.1146002 L85.1082716,34.5497548 C85.7856277,35.1282654 86.4031095,35.6586823 86.4031095,36.7361639 C86.4031095,38.2039437 84.9990354,39.6842092 82.3458289,39.6842092 C80.1108281,39.6842092 79.0303492,38.60719 79.0303492,37.4524811 C79.0303492,36.8906184 79.3068677,36.0947618 80.2191502,35.5495468 C81.1753101,34.958088 82.470605,34.879011 83.1644151,34.8327672 C82.9477709,34.5497548 82.7005039,34.2533318 82.7005039,33.7696211 C82.7005039,33.5051063 82.7791174,33.3474148 82.8549886,33.1615145 C82.6863352,33.1776999 82.5163106,33.1943477 82.3618259,33.1943477 C80.7260247,33.1943477 79.8014016,31.9596369 79.8014016,30.7429613 C79.8014016,30.0252568 80.1249968,29.2289377 80.7895554,28.6518145 C81.6689299,27.9193119 82.717415,27.7930662 83.5506269,27.7930662 L86.72899,27.7930662 Z M83.4369844,35.2686443 L83.3348968,35.2683842 C83.1950378,35.2683842 82.3618259,35.2989052 81.7164637,35.518101 C81.3750433,35.6443467 80.3882607,36.0175345 80.3882607,37.1259996 C80.3882607,38.2321524 81.4536568,39.0298588 83.1017985,39.0298588 C84.582658,39.0298588 85.3687932,38.3116918 85.3687932,37.344733 C85.3687932,36.5488764 84.8600906,36.1289822 83.6900288,35.285032 C83.5950755,35.2725462 83.5286597,35.2694247 83.4369844,35.2686443 Z M117.484247,27.7417356 L120.120542,34.1391095 L122.731242,27.7417356 L123.613816,27.7417356 L119.865505,36.6732723 C119.476551,37.5935249 118.864554,38.0360785 118.024029,38.0360785 C117.771734,38.0360785 117.438998,37.9907595 117.244292,37.9301801 L117.37821,37.2018395 C117.545035,37.277217 117.82978,37.3234608 118.010317,37.3234608 C118.487483,37.3234608 118.819762,37.1259996 119.11822,36.4286424 L119.687253,35.1241034 L116.614013,27.7417356 L117.484247,27.7417356 Z M103.540858,27.5590724 C105.475573,27.5590724 106.778638,29.0439623 106.778638,31.3945371 C106.778638,33.729389 105.475573,35.2452623 103.540858,35.2452623 C102.522539,35.2452623 101.610256,34.7139205 101.025225,33.8810688 L101.025225,37.8557275 L100.245032,37.8557275 L100.245032,27.7417356 L101.025225,27.7417356 L101.025225,28.8936698 C101.533471,28.1491439 102.462207,27.5590724 103.540858,27.5590724 Z M58.148403,24.4866311 C58.9285965,24.4866311 59.6790815,24.6027032 60.3628363,24.7913781 C61.4465146,25.0993621 61.953389,25.4790241 62.2701284,25.701457 L61.0689869,26.8557035 L60.5625695,26.9703882 L60.9236433,26.3881782 C60.434594,25.9049299 59.5355661,25.0128861 57.8293784,25.0128861 C55.548215,25.0128861 53.8274014,26.7673777 53.8274014,29.3288244 C53.8274014,32.0798709 55.7922825,34.6676766 58.9436794,34.6676766 C59.8696736,34.6676766 60.3463823,34.4794642 60.7792138,34.3037376 L60.7792138,31.9453013 L58.5958602,32.064148 L59.7531244,31.4352317 L62.8172237,31.4352317 L62.4424383,31.8000956 C62.3414291,31.8870341 62.3277174,31.9166301 62.29938,32.0331646 C62.2842971,32.1663469 62.2701284,32.5899406 62.2701284,32.7388458 L62.2701284,34.522471 L60.2024099,35.0015572 C59.3646274,35.1352019 58.6123142,35.2526613 57.8156667,35.2526613 C53.8274014,35.2526613 52.3076923,32.282419 52.3076923,29.9577408 C52.3076923,27.1188309 54.4608802,24.4866311 58.148403,24.4866311 Z M112.962598,27.5558353 C113.813178,27.5558353 114.501503,27.7630077 115.020261,28.1764277 C115.538562,28.5856858 115.798626,29.1771446 115.798626,29.9503417 L115.798626,33.5619862 C115.798626,33.8214142 115.810967,34.0720559 115.842961,34.3162234 C115.875869,34.5608533 115.92843,34.8050209 115.998359,35.0413269 L115.099332,35.0413269 C115.047227,34.7874482 115.00792,34.563628 114.979126,34.3768028 C114.955359,34.1904401 114.941647,33.9999155 114.941647,33.8061538 C114.67427,34.2033884 114.295371,34.5340319 113.81135,34.7943848 C113.326871,35.0565874 112.866616,35.1851453 112.235423,35.1851453 C111.475339,35.1851453 110.885281,34.996008 110.464333,34.612184 C110.044756,34.2288225 109.833597,33.7095041 109.833597,33.052379 C109.833597,32.3961788 110.139367,31.8634497 110.749078,31.4560414 C111.35879,31.0467834 112.146754,30.8433104 113.12211,30.8433104 L114.941647,30.8433104 L114.941647,29.933694 C114.941647,29.4097512 114.765224,28.9977185 114.412834,28.6989832 C114.059074,28.3997855 113.562711,28.2485681 112.919177,28.2485681 C112.330947,28.2485681 111.853781,28.3868372 111.490422,28.6559764 C111.130263,28.9306649 110.948812,29.2710196 110.948812,29.6812025 L110.150336,29.6812025 L110.133882,29.6418953 C110.105087,29.0888189 110.355097,28.6037209 110.886652,28.1847516 C111.415922,27.7662448 112.109275,27.5558353 112.962598,27.5558353 Z M93.744333,27.5914431 C94.2991983,27.5914431 94.8691463,27.7320244 95.3326005,28.0284474 C96.1031959,28.5440663 96.302472,29.2141397 96.4130794,29.5729919 L92.7872591,31.0551073 L91.5998292,31.1485198 C91.9842128,33.1323809 93.3105875,34.2861649 94.7763641,34.2861649 C95.5085668,34.2861649 96.0520057,34.0443096 96.5506531,33.7950552 C96.5506531,33.7950552 96.6507482,33.7423372 96.5794476,33.8144776 L95.8417602,34.5187714 C95.6712785,34.6135713 95.501711,34.7236317 95.3326005,34.8017838 C94.8202414,35.037165 94.2991983,35.0963571 93.8362012,35.0963571 C93.3434955,35.0963571 92.5710719,35.0639864 91.7831084,34.4873256 C90.6884608,33.7071919 90.2099238,32.3661203 90.2099238,31.1975383 C90.2099238,28.7780602 92.1565227,27.5914431 93.744333,27.5914431 Z M75.4516056,27.5914431 C77.7190573,27.5914431 79.1391284,29.3875541 79.1391284,31.2733782 C79.1391284,33.1152707 77.7355113,35.0639864 75.2203356,35.0639864 C72.7686905,35.0639864 71.4569416,33.1323809 71.4569416,31.3834386 C71.4569416,29.3399229 73.1059974,27.5914431 75.4516056,27.5914431 Z M67.2447192,27.5914431 C69.5107998,27.5914431 70.9294997,29.3875541 70.9294997,31.2733782 C70.9294997,33.1152707 69.5277108,35.0639864 67.012078,35.0639864 C64.5599759,35.0639864 63.2505122,33.1323809 63.2505122,31.3834386 C63.2505122,29.3399229 64.9000251,27.5914431 67.2447192,27.5914431 Z M108.623771,24.9490696 L108.623771,35.0630615 L107.844034,35.0630615 L107.844034,24.9490696 L108.623771,24.9490696 Z M89.6843101,23.8461538 C89.2062302,24.1263916 89.0631718,24.2970314 89.0019264,24.8431712 L88.99827,33.6937812 C88.99827,34.300038 89.1052209,34.3943755 89.6120954,34.4420067 C89.8762734,34.4734525 90.1395373,34.4873256 90.4000588,34.5187714 L89.8296537,34.8623632 L87.1115454,34.8623632 C87.4680486,34.3943755 87.529294,34.3476692 87.529294,34.0359857 L87.529294,33.6877695 L87.5233523,24.4094039 L86.3231248,24.4094039 L87.4785608,23.8461538 L89.6843101,23.8461538 Z M66.8438816,28.0756162 C66.3333508,28.0756162 65.8264763,28.2767769 65.4562615,28.6051082 C64.8529484,29.151248 64.7459974,29.8375067 64.7459974,30.5108172 C64.7459974,32.0525871 65.5024241,34.5955362 67.3685812,34.5955362 C67.9705231,34.5955362 68.5852626,34.300038 68.9413087,33.8015294 C69.3115236,33.3020958 69.4038488,32.6787287 69.4038488,32.0710846 C69.4038488,30.6967174 68.7548302,28.0756162 66.8438816,28.0756162 Z M75.0525962,28.0756162 C74.5438936,28.0756162 74.0315345,28.2767769 73.6622338,28.6051082 C73.0598348,29.151248 72.9524268,29.8375067 72.9524268,30.5108172 C72.9524268,32.0525871 73.705654,34.5955362 75.5750105,34.5955362 C76.1783236,34.5955362 76.7939772,34.300038 77.1491093,33.8015294 C77.5220665,33.3020958 77.6125634,32.6787287 77.6125634,32.0710846 C77.6125634,30.6967174 76.965373,28.0756162 75.0525962,28.0756162 Z M103.409226,28.2716901 C102.404161,28.2716901 101.442974,29.0707838 101.025225,29.7676785 L101.025225,33.0052103 C101.442974,33.7034924 102.404161,34.5317197 103.409226,34.5317197 C105.027659,34.5317197 105.940399,33.1689135 105.940399,31.3945371 C105.940399,29.6229353 105.027659,28.2716901 103.409226,28.2716901 Z M114.941647,31.4699146 L113.113426,31.4699146 C112.415045,31.4699146 111.83687,31.6262188 111.3821,31.9416018 C110.926416,32.25606 110.695603,32.6366468 110.695603,33.0792005 C110.695603,33.4967824 110.841861,33.830663 111.132548,34.0836168 C111.424149,34.3393453 111.822702,34.4660535 112.330947,34.4660535 C112.993677,34.4660535 113.469929,34.3162234 113.956693,34.0198003 C114.440258,33.725227 114.769338,33.3409406 114.941647,32.8757275 L114.941647,31.4699146 Z M82.577556,28.3091476 C82.1776325,28.3091476 81.744344,28.5121581 81.4984483,28.8261538 C81.2374696,29.151248 81.1593132,29.5729919 81.1593132,29.9785505 C81.1593132,31.0236614 81.7617122,32.7568809 83.0867157,32.7568809 C83.4733846,32.7568809 83.8893049,32.5668186 84.1333725,32.3198765 C84.4898757,31.9596369 84.5209555,31.4620531 84.5209555,31.1795032 C84.5209555,30.057165 83.8595963,28.3091476 82.577556,28.3091476 Z M93.3105875,28.1061371 C92.6944768,28.1061371 91.5376697,28.5916975 91.5376697,30.2777482 C91.5376697,30.4531665 91.5514829,30.6361894 91.5652961,30.8217471 L91.5842893,31.1013511 L94.3919805,29.8684901 L94.495716,29.8283338 C94.7222102,29.7349899 94.8394377,29.6396987 94.8394377,29.4495209 C94.8394377,28.8261538 94.1424283,28.1061371 93.3105875,28.1061371 Z" id="Combined-Shape-Copy-3" fill="#000000"></path>
                </g>
            </g>
        </g>
    </g>
</svg>