<?xml version="1.0" encoding="UTF-8"?>
<svg width="79px" height="28px" viewBox="0 0 79 28" version="1.1" xmlns="http://www.w3.org/2000/svg" xmlns:xlink="http://www.w3.org/1999/xlink">
    <title>Combined Shape</title>
    <g id="Page-1" stroke="none" stroke-width="1" fill="none" fill-rule="evenodd">
        <g id="Desktop-HD-Copy-2" transform="translate(-207.000000, -13.000000)" fill="#FFFFFF" fill-rule="nonzero">
            <path d="M248.098432,26.9601201 L255.844453,35.762416 L250.739121,35.762416 L243.169146,26.9601201 L248.098432,26.9601201 Z M246.901271,18.3184324 C248.514413,18.3184324 249.889512,18.5615102 251.026569,19.0476658 C252.163626,19.5338215 253.030873,20.2611898 253.62831,21.229771 C254.225747,22.1983522 254.524465,23.4081461 254.524465,24.8591528 C254.524465,25.1918772 254.510415,25.5333052 254.482315,25.8834367 C254.454215,26.2335682 254.408335,26.5880515 254.344675,26.9468866 C254.061997,28.6479277 253.534073,30.1031014 252.760902,31.3124076 L249.717529,27.8545328 C249.760397,27.6774128 249.798059,27.4954704 249.830515,27.3087057 C249.895667,26.9416644 249.948448,26.6308854 249.988857,26.3763686 C250.029266,26.1218519 250.059604,25.9107285 250.079871,25.7429986 C250.100138,25.5752687 250.11425,25.4327169 250.122208,25.3153433 C250.130165,25.1979697 250.134144,25.0886779 250.134144,24.987468 C250.134144,24.2981466 250.004896,23.7045021 249.746401,23.2065345 C249.487905,22.7085669 249.100224,22.3259836 248.583357,22.0587845 C248.066491,21.7915854 247.423733,21.6579858 246.655085,21.6579858 C245.951341,21.6579858 245.313868,21.7640448 244.742666,21.9761629 C244.171464,22.1882809 243.674802,22.4941486 243.25268,22.8937661 C242.830557,23.2933835 242.480488,23.780596 242.202472,24.3554035 C241.924455,24.9302111 241.723155,25.5760769 241.598569,26.293001 C241.533417,26.6687459 241.482439,26.9838767 241.445636,27.2383934 C241.408832,27.4929102 241.380297,27.7058986 241.36003,27.8773586 C241.339763,28.0488186 241.325651,28.1913704 241.317693,28.3050139 C241.309736,28.4186574 241.305757,28.5260842 241.305757,28.6272941 C241.305757,29.3079119 241.432829,29.8972668 241.686973,30.3953588 C241.941116,30.8934507 242.324819,31.276034 242.83808,31.5431088 C243.351341,31.8101835 243.988689,31.9437209 244.750126,31.9437209 C245.358942,31.9437209 245.916462,31.8660012 246.422685,31.7105618 L248.857921,34.542462 C247.610306,35.0435484 246.166191,35.2940916 244.525574,35.2940916 C242.921385,35.2940916 241.550762,35.0510138 240.413705,34.5648582 C239.276648,34.0787026 238.411142,33.3535101 237.817186,32.3892807 C237.223231,31.4250513 236.926253,30.2261368 236.926253,28.7925372 C236.926253,28.4364376 236.942541,28.0775403 236.975117,27.7158455 C237.007694,27.3541507 237.055812,26.989534 237.119472,26.6219953 C237.423102,24.8439837 237.985103,23.3368391 238.805475,22.1005615 C239.625847,20.8642839 240.710185,19.9248597 242.05849,19.2822888 C243.406795,18.6397178 245.021055,18.3184324 246.901271,18.3184324 Z M264.547543,18.3184324 C265.490511,18.3184324 266.363788,18.3983807 267.167375,18.5582775 C267.970962,18.7181742 268.670354,18.9641117 269.265553,19.2960901 C269.860752,19.6280685 270.326205,20.0515585 270.661914,20.5665602 C270.997622,21.0815619 271.165477,21.690562 271.165477,22.3935604 C271.165477,22.5280925 271.157519,22.6804047 271.141604,22.850497 C271.125689,23.0205893 271.093859,23.2488711 271.046114,23.5353423 L266.954573,23.5353423 C266.984911,23.3948421 267.001883,23.2894669 267.005489,23.2192168 C267.009095,23.1489667 267.010898,23.0856173 267.010898,23.0291685 C267.010898,22.5686262 266.813513,22.1925705 266.418745,21.9010015 C266.023977,21.6094324 265.434311,21.4636479 264.649748,21.4636479 C264.022843,21.4636479 263.483099,21.532406 263.030514,21.6699221 C262.577929,21.8074383 262.233206,21.9931348 261.996345,22.2270117 C261.759484,22.4608886 261.641054,22.7321287 261.641054,23.0407318 C261.641054,23.2839339 261.715656,23.4935031 261.86486,23.6694392 C262.014063,23.8453753 262.224378,24.0002986 262.495805,24.1342089 C262.767232,24.2681193 263.084227,24.3897204 263.446793,24.4990122 C263.809358,24.6083039 264.200396,24.7136791 264.619907,24.8151377 C265.248055,24.971553 265.901008,25.1503488 266.578766,25.3515252 C267.256524,25.5527016 267.888713,25.8178492 268.475333,26.1469678 C269.061952,26.4760865 269.53499,26.8992657 269.894447,27.4165054 C270.253904,27.9337452 270.433632,28.5794245 270.433632,29.3535434 C270.433632,30.3808114 270.226363,31.2683252 269.811825,32.0160847 C269.397288,32.7638443 268.836717,33.3803667 268.130112,33.865652 C267.423508,34.3509373 266.622471,34.7103319 265.726999,34.9438358 C264.831528,35.1773397 263.902983,35.2940916 262.941365,35.2940916 C261.908626,35.2940916 260.948189,35.2191789 260.060053,35.0693534 C259.171918,34.919528 258.398048,34.6799938 257.738443,34.3507508 C257.078838,34.0215078 256.563152,33.5813567 256.191386,33.0302974 C255.81962,32.4792381 255.633737,31.8067021 255.633737,31.0126894 C255.633737,30.7898784 255.649279,30.5489765 255.680363,30.2899836 C255.711447,30.0309907 255.755214,29.7966786 255.811662,29.5870473 L259.950948,29.5870473 C259.908922,29.6996962 259.874543,29.8266437 259.847811,29.96789 C259.821079,30.1091362 259.807713,30.2390678 259.807713,30.3576848 C259.807713,30.7528261 259.925708,31.0752928 260.161698,31.3250848 C260.397689,31.5748768 260.731408,31.7555377 261.162856,31.8670675 C261.594303,31.9785973 262.095255,32.0343622 262.665711,32.0343622 C263.122274,32.0343622 263.54651,32.0024699 263.938419,31.9386853 C264.330328,31.8749007 264.673931,31.775991 264.969231,31.6419563 C265.26453,31.5079216 265.493868,31.3300582 265.657246,31.1083663 C265.820625,30.8866744 265.902314,30.6217755 265.902314,30.3136697 C265.902314,30.0080506 265.792773,29.751731 265.573692,29.5447108 C265.354611,29.3376905 265.057696,29.1581486 264.682946,29.0060851 C264.308196,28.8540216 263.885762,28.7171893 263.415646,28.5955883 C262.94553,28.4739872 262.455831,28.3457963 261.946549,28.2110155 C261.374849,28.0533569 260.803586,27.8714526 260.232757,27.6653027 C259.661928,27.4591529 259.143134,27.1932593 258.676375,26.8676221 C258.209616,26.5419848 257.837663,26.1364614 257.560517,25.6510518 C257.283371,25.1656422 257.144798,24.5728059 257.144798,23.8725428 C257.144798,22.8833218 257.351943,22.0398232 257.766232,21.3420468 C258.180521,20.6442705 258.738792,20.0715146 259.441044,19.6237789 C260.143297,19.1760432 260.936626,18.8465516 261.821031,18.6353039 C262.705436,18.4240562 263.614274,18.3184324 264.547543,18.3184324 Z M272.376627,35.0076204 L275.267077,18.6049036 L279.551463,18.6049036 L277.280955,31.4927525 L285.480075,31.4927525 L284.85976,35.0076204 L272.376627,35.0076204 Z M220.579005,13 C223.708813,13 226.591307,14.0588711 228.887797,15.8379201 C222.907374,17.3412793 218.479937,22.7538854 218.479937,29.2005746 C218.479937,33.4859724 220.436353,37.3144248 223.504744,39.8414914 C222.562324,40.0489625 221.583399,40.1580102 220.579005,40.1580102 C213.079528,40.1580102 207,34.0784825 207,26.5790051 C207,19.0795277 213.079528,13 220.579005,13 Z M229.798004,16.6089903 C231.212249,17.9173382 232.347569,19.5228482 233.104757,21.3263153 C232.878419,21.3114011 232.649763,21.3042154 232.419429,21.3042154 C226.434125,21.3042154 221.582078,26.1562623 221.582078,32.1415655 C221.582078,35.0181101 222.702793,37.6328978 224.531854,39.5734489 C224.504733,39.5819374 224.476399,39.5904463 224.448026,39.5988649 C221.312907,37.2468963 219.285688,33.5007641 219.285688,29.2811497 C219.285688,22.986601 223.796806,17.7456803 229.762421,16.6150092 Z M232.540291,22.1905414 C232.845787,22.1905414 233.148105,22.2041425 233.446675,22.2307723 C233.9081,23.5963648 234.15801,25.0585001 234.15801,26.5790051 C234.15801,26.8728834 234.148675,27.1645813 234.130284,27.4538184 C233.579068,27.3312278 233.006775,27.2667723 232.419429,27.2667723 C228.08064,27.2667723 224.563357,30.7840554 224.563357,35.122844 C224.563357,36.6014929 224.971865,37.9847296 225.682029,39.1657652 C225.568343,39.2126824 225.453182,39.2575942 225.337268,39.3009673 C223.562085,37.4858785 222.468404,35.0018747 222.468404,32.2624281 C222.468404,26.6998787 226.977742,22.1905414 232.540291,22.1905414 Z M232.419429,28.3142486 C232.971159,28.3142486 233.507917,28.3783567 234.022658,28.4995303 C233.375227,33.0761045 230.445938,36.9186086 226.423137,38.8395648 C225.804994,37.7988023 225.449683,36.5828919 225.449683,35.2839942 C225.449683,31.4347099 228.570144,28.3142486 232.419429,28.3142486 Z" id="Combined-Shape"></path>
        </g>
    </g>
</svg>