<?xml version="1.0" encoding="UTF-8"?>
<svg width="81px" height="28px" viewBox="0 0 81 28" version="1.1" xmlns="http://www.w3.org/2000/svg" xmlns:xlink="http://www.w3.org/1999/xlink">
    <title>Group 6</title>
    <defs>
        <circle id="path-1" cx="14" cy="14" r="14"></circle>
    </defs>
    <g id="Page-1" stroke="none" stroke-width="1" fill="none" fill-rule="evenodd">
        <g id="Desktop-HD-Copy" transform="translate(-206.000000, -13.000000)">
            <g id="Group-6" transform="translate(206.000000, 13.000000)">
                <g id="Oval-Copy-2-+-Oval-Copy-5-+-Oval-Copy-+-Oval-Copy-4-+-Oval-+-Oval-Copy-3-Mask">
                    <mask id="mask-2" fill="white">
                        <use xlink:href="#path-1"></use>
                    </mask>
                    <use id="Mask" fill="#074183" xlink:href="#path-1"></use>
                    <g id="Group-5" mask="url(#mask-2)">
                        <g transform="translate(11.835854, 2.497331)">
                            <path d="M14.205516,0 C22.0510059,0 28.411032,6.36002616 28.411032,14.205516 C28.411032,22.0510059 22.0510059,28.411032 14.205516,28.411032 C6.36002616,28.411032 0,22.0510059 0,14.205516 C0,6.36002616 6.36002616,0 14.205516,0 Z M14.1224428,0.996878317 C6.7816336,0.996878317 0.830731931,6.94777998 0.830731931,14.2885892 C0.830731931,21.6293984 6.7816336,27.5803001 14.1224428,27.5803001 C21.463252,27.5803001 27.4141537,21.6293984 27.4141537,14.2885892 C27.4141537,6.94777998 21.463252,0.996878317 14.1224428,0.996878317 Z" id="Combined-Shape" fill="#FFFFFF"></path>
                            <circle id="Oval-Copy-5" fill="#1575E1" cx="14.1224428" cy="14.2885892" r="13.2917109"></circle>
                            <path d="M14.3716624,6.06434309 C20.5425302,6.06434309 25.5450069,11.0668198 25.5450069,17.2376876 C25.5450069,23.4085553 20.5425302,28.411032 14.3716624,28.411032 C8.20079465,28.411032 3.19831793,23.4085553 3.19831793,17.2376876 C3.19831793,11.0668198 8.20079465,6.06434309 14.3716624,6.06434309 Z M14.4962722,6.97814822 C8.76126498,6.97814822 4.11212306,11.6272901 4.11212306,17.3622974 C4.11212306,23.0973046 8.76126498,27.7464465 14.4962722,27.7464465 C20.2312794,27.7464465 24.8804213,23.0973046 24.8804213,17.3622974 C24.8804213,11.6272901 20.2312794,6.97814822 14.4962722,6.97814822 Z" id="Combined-Shape" fill="#FFFFFF"></path>
                            <path d="M14.3716624,12.2117594 C18.844968,12.2117594 22.4712987,15.8380901 22.4712987,20.3113957 C22.4712987,24.7847013 18.844968,28.411032 14.3716624,28.411032 C9.89835678,28.411032 6.27202608,24.7847013 6.27202608,20.3113957 C6.27202608,15.8380901 9.89835678,12.2117594 14.3716624,12.2117594 Z M14.3716624,13.2917109 C10.4030374,13.2917109 7.1858312,16.5089171 7.1858312,20.4775421 C7.1858312,24.4461671 10.4030374,27.6633733 14.3716624,27.6633733 C18.3402874,27.6633733 21.5574936,24.4461671 21.5574936,20.4775421 C21.5574936,16.5089171 18.3402874,13.2917109 14.3716624,13.2917109 Z" id="Combined-Shape" fill="#FFFFFF"></path>
                        </g>
                    </g>
                </g>
                <g id="Group-4" transform="translate(30.854068, 5.483322)">
                    <path d="M10.2842774,0 C11.9474317,0 13.3651637,0.250614044 14.5374733,0.751842132 C15.709783,1.25307022 16.6039175,2.00298948 17.2198769,3.00159992 C17.8358362,4.00021036 18.1438158,5.24751197 18.1438158,6.74350475 C18.1438158,7.08654474 18.1293302,7.43855813 18.100359,7.7995449 C18.0713877,8.16053168 18.0240851,8.52600515 17.9584512,8.89596532 C17.6670474,10.6495173 17.1228591,12.1496448 16.3258863,13.3963478 L13.1880011,9.83112201 C13.232135,9.64870913 13.2709136,9.46133582 13.3043369,9.26900208 C13.3715091,8.89058129 13.4259263,8.57016707 13.4675885,8.30775942 C13.5092507,8.04535177 13.5405294,7.8276829 13.5614246,7.6547528 C13.5823198,7.4818227 13.5968695,7.33485134 13.6050737,7.21383873 C13.613278,7.09282612 13.6173801,6.98014594 13.6173801,6.8757982 C13.6173801,6.16510549 13.4841252,5.553056 13.2176154,5.03964973 C12.9511057,4.52624347 12.5514051,4.13179875 12.0185138,3.85631559 C11.4856224,3.58083243 10.8229374,3.44309085 10.0304586,3.44309085 C9.30489566,3.44309085 8.64765872,3.55243805 8.05874777,3.77113246 C7.46983681,3.98982686 6.95777656,4.30517752 6.522567,4.71718445 C6.08735745,5.12919137 5.72643477,5.63150909 5.43979896,6.22413759 C5.15316315,6.8167661 4.94562139,7.48265594 4.81717368,8.22180714 C4.75000143,8.60920133 4.69744298,8.93410224 4.65949835,9.19650989 C4.62155372,9.45891754 4.59213381,9.67850928 4.57123862,9.85528512 C4.55034344,10.032061 4.53579372,10.1790323 4.52758948,10.2961992 C4.51938523,10.4133661 4.51528311,10.5241234 4.51528311,10.6284711 C4.51528311,11.3301904 4.64629464,11.9378173 4.90831772,12.4513518 C5.17034079,12.9648862 5.56593922,13.3593309 6.09511302,13.6346859 C6.62428682,13.9100409 7.28139556,14.0477184 8.06643925,14.0477184 C8.69415244,14.0477184 9.26897482,13.9675836 9.7909064,13.8073141 L12.3016633,16.7269996 C11.0153514,17.2436411 9.52643886,17.5019619 7.83492571,17.5019619 C6.18100121,17.5019619 4.76788412,17.2513478 3.59557443,16.7501197 C2.42326475,16.2488916 1.53092492,15.5012157 0.918554953,14.507092 C0.306184984,13.5129682 0,12.2768834 0,10.7988374 C0,10.4316974 0.0167930638,10.0616732 0.0503791915,9.68876459 C0.0839653191,9.31585601 0.133575363,8.93993495 0.199209322,8.56100139 C0.512252542,6.72786541 1.09167734,5.17399424 1.93748372,3.89938788 C2.78329009,2.62478151 3.90124665,1.65623194 5.2913534,0.993739166 C6.68146015,0.331246389 8.34576815,0 10.2842774,0 Z" id="Combined-Shape" fill="#1575E1" fill-rule="nonzero"></path>
                    <polygon id="Rectangle" fill="#074183" points="6.43644397 8.90960913 11.5185541 8.90960913 19.5047272 17.9848058 14.2411131 17.9848058"></polygon>
                    <path d="M26.8216676,17.5019619 C25.7569105,17.5019619 24.7666966,17.4247266 23.8510259,17.270256 C22.9353553,17.1157855 22.1374924,16.8688249 21.4574375,16.5293743 C20.7773825,16.1899236 20.2457089,15.7361263 19.8624169,15.1679824 C19.4791248,14.5998384 19.2874788,13.9064515 19.2874788,13.0878217 C19.2874788,12.8581029 19.3035027,12.6097322 19.3355505,12.3427096 C19.3675983,12.0756871 19.4127217,11.8341105 19.4709206,11.61798 L23.738538,11.61798 C23.6952094,11.7341213 23.6597645,11.8650046 23.6322033,12.01063 C23.6046422,12.1562553 23.5908616,12.2902153 23.5908616,12.4125098 C23.5908616,12.8199018 23.7125152,13.152366 23.9558223,13.4099024 C24.1991295,13.6674388 24.543195,13.8537008 24.9880189,13.9686884 C25.4328428,14.083676 25.9493256,14.1411698 26.5374675,14.1411698 C27.008186,14.1411698 27.4455748,14.1082888 27.8496339,14.0425266 C28.2536929,13.9767645 28.6079497,13.8747883 28.9124041,13.736598 C29.2168585,13.5984078 29.4533074,13.4150301 29.6217508,13.1864649 C29.7901942,12.9578998 29.8744159,12.6847882 29.8744159,12.3671301 C29.8744159,12.0520358 29.7614793,11.7877694 29.5356062,11.5743308 C29.3097331,11.3608923 29.0036122,11.175784 28.6172435,11.019006 C28.2308749,10.862228 27.7953449,10.7211534 27.3106534,10.5957823 C26.825962,10.4704112 26.3210805,10.3382459 25.7960088,10.1992865 C25.2065851,10.0367399 24.61761,9.84919603 24.0290837,9.63665481 C23.4405573,9.42411359 22.905679,9.14997644 22.4244487,8.81424335 C21.9432185,8.47851027 21.5597341,8.06041425 21.2739957,7.55995531 C20.9882572,7.05949637 20.845388,6.44828013 20.845388,5.72630657 C20.845388,4.70641638 21.0589547,3.83676642 21.4860882,3.11735669 C21.9132217,2.39794696 22.4888008,1.80743361 23.2128254,1.34581665 C23.93685,0.884199677 24.7547748,0.544492661 25.6665997,0.326695597 C26.5784246,0.108898532 27.5154391,0 28.4776432,0 C29.4498462,0 30.350198,0.0824270232 31.1786985,0.24728107 C32.0071991,0.412135116 32.7282753,0.665697561 33.3419272,1.0079684 C33.9555791,1.35023925 34.4354633,1.78685891 34.7815799,2.31782738 C35.1276965,2.84879586 35.3007548,3.47667698 35.3007548,4.20147074 C35.3007548,4.34017376 35.2925505,4.49720813 35.276142,4.67257387 C35.2597335,4.8479396 35.2269166,5.08329888 35.1776911,5.3786517 L30.9592991,5.3786517 C30.9905778,5.2337955 31.0080759,5.12515335 31.0117934,5.05272525 C31.015511,4.98029715 31.0173698,4.91498367 31.0173698,4.8567848 C31.0173698,4.38196413 30.813866,3.99424946 30.4068586,3.6936408 C29.9998511,3.39303214 29.3919037,3.24272781 28.5830165,3.24272781 C27.9366758,3.24272781 27.3801972,3.31361761 26.9135808,3.45539722 C26.4469644,3.59717682 26.0915539,3.78863057 25.8473494,4.02975846 C25.603145,4.27088634 25.4810427,4.55053572 25.4810427,4.8687066 C25.4810427,5.11944883 25.5579575,5.33551531 25.7117871,5.51690604 C25.8656167,5.69829677 26.0824523,5.85802316 26.362294,5.99608522 C26.6421357,6.13414728 26.9689595,6.2595184 27.3427654,6.37219857 C27.7165713,6.48487875 28.119733,6.5935209 28.5522505,6.69812502 C29.1998731,6.85938971 29.8730699,7.04372884 30.5718408,7.25114241 C31.2706117,7.45855597 31.9224005,7.73192398 32.5272072,8.07124642 C33.1320139,8.41056886 33.6197178,8.84686805 33.9903189,9.38014397 C34.36092,9.91341989 34.5462206,10.5791174 34.5462206,11.3772366 C34.5462206,12.4363534 34.3325257,13.3513831 33.9051358,14.1223257 C33.4777459,14.8932684 32.8997953,15.5289051 32.171284,16.0292358 C31.4427727,16.5295666 30.6169001,16.9001036 29.6936661,17.1408469 C28.7704322,17.3815902 27.8130993,17.5019619 26.8216676,17.5019619 Z" id="Path" fill="#1575E1" fill-rule="nonzero"></path>
                    <polygon id="Path" fill="#1575E1" fill-rule="nonzero" points="36.5494545 17.206609 39.5295182 0.295352817 43.946735 0.295352817 41.6058332 13.5827684 50.0591538 13.5827684 49.4196073 17.206609"></polygon>
                    <g id="Group-3" transform="translate(6.436444, 8.909609)"></g>
                </g>
            </g>
        </g>
    </g>
</svg>